<?xml version="1.0" encoding="UTF-8"?>
<svg width="54px" height="50px" viewBox="0 0 54 50" version="1.1" xmlns="http://www.w3.org/2000/svg" xmlns:xlink="http://www.w3.org/1999/xlink">
    <!-- Generator: Sketch 48.2 (47327) - http://www.bohemiancoding.com/sketch -->
    <title>Icons/Cart</title>
    <desc>Created with Sketch.</desc>
    <defs>
        <path d="M0,0 L50,0 L46,26 L4,26 L0,0 Z M10,10 C11.1045695,10 12,9.1045695 12,8 C12,6.8954305 11.1045695,6 10,6 C8.8954305,6 8,6.8954305 8,8 C8,9.1045695 8.8954305,10 10,10 Z M10,16 C11.1045695,16 12,15.1045695 12,14 C12,12.8954305 11.1045695,12 10,12 C8.8954305,12 8,12.8954305 8,14 C8,15.1045695 8.8954305,16 10,16 Z M10,22 C11.1045695,22 12,21.1045695 12,20 C12,18.8954305 11.1045695,18 10,18 C8.8954305,18 8,18.8954305 8,20 C8,21.1045695 8.8954305,22 10,22 Z M18,10 C19.1045695,10 20,9.1045695 20,8 C20,6.8954305 19.1045695,6 18,6 C16.8954305,6 16,6.8954305 16,8 C16,9.1045695 16.8954305,10 18,10 Z M18,16 C19.1045695,16 20,15.1045695 20,14 C20,12.8954305 19.1045695,12 18,12 C16.8954305,12 16,12.8954305 16,14 C16,15.1045695 16.8954305,16 18,16 Z M18,22 C19.1045695,22 20,21.1045695 20,20 C20,18.8954305 19.1045695,18 18,18 C16.8954305,18 16,18.8954305 16,20 C16,21.1045695 16.8954305,22 18,22 Z M26,10 C27.1045695,10 28,9.1045695 28,8 C28,6.8954305 27.1045695,6 26,6 C24.8954305,6 24,6.8954305 24,8 C24,9.1045695 24.8954305,10 26,10 Z M26,16 C27.1045695,16 28,15.1045695 28,14 C28,12.8954305 27.1045695,12 26,12 C24.8954305,12 24,12.8954305 24,14 C24,15.1045695 24.8954305,16 26,16 Z M26,22 C27.1045695,22 28,21.1045695 28,20 C28,18.8954305 27.1045695,18 26,18 C24.8954305,18 24,18.8954305 24,20 C24,21.1045695 24.8954305,22 26,22 Z M34,10 C35.1045695,10 36,9.1045695 36,8 C36,6.8954305 35.1045695,6 34,6 C32.8954305,6 32,6.8954305 32,8 C32,9.1045695 32.8954305,10 34,10 Z M34,16 C35.1045695,16 36,15.1045695 36,14 C36,12.8954305 35.1045695,12 34,12 C32.8954305,12 32,12.8954305 32,14 C32,15.1045695 32.8954305,16 34,16 Z M34,22 C35.1045695,22 36,21.1045695 36,20 C36,18.8954305 35.1045695,18 34,18 C32.8954305,18 32,18.8954305 32,20 C32,21.1045695 32.8954305,22 34,22 Z M42,10 C43.1045695,10 44,9.1045695 44,8 C44,6.8954305 43.1045695,6 42,6 C40.8954305,6 40,6.8954305 40,8 C40,9.1045695 40.8954305,10 42,10 Z M42,16 C43.1045695,16 44,15.1045695 44,14 C44,12.8954305 43.1045695,12 42,12 C40.8954305,12 40,12.8954305 40,14 C40,15.1045695 40.8954305,16 42,16 Z M42,22 C43.1045695,22 44,21.1045695 44,20 C44,18.8954305 43.1045695,18 42,18 C40.8954305,18 40,18.8954305 40,20 C40,21.1045695 40.8954305,22 42,22 Z" id="path-1"></path>
    </defs>
    <g id="Symbols" stroke="none" stroke-width="1" fill="none" fill-rule="evenodd">
        <g id="Icons/Cart">
            <g id="shoppingcart">
                <g id="Mask-+-Rectangle-397" transform="translate(4.000000, 8.000000)">
                    <mask id="mask-2" fill="white">
                        <use xlink:href="#path-1"></use>
                    </mask>
                    <use id="Mask" fill="#2C97DE" xlink:href="#path-1"></use>
                    <polygon id="Rectangle-397" fill-opacity="0.600000024" fill="#227FBB" mask="url(#mask-2)" points="0 2 50 2 50 10"></polygon>
                </g>
                <rect id="Rectangle-396" fill="#227FBB" x="4" y="8" width="50" height="2"></rect>
                <path d="M14,44 L42,44 L42,46 L10,46 L10,44 L8,34 L12,34 L14,44 Z" id="Rectangle-394" fill="#BDC3C7"></path>
                <path d="M14,50 C12.8954305,50 12,49.1045695 12,48 C12,46.8954305 12.8954305,46 14,46 C15.1045695,46 16,46.8954305 16,48 C16,49.1045695 15.1045695,50 14,50 Z M38,50 C36.8954305,50 36,49.1045695 36,48 C36,46.8954305 36.8954305,46 38,46 C39.1045695,46 40,46.8954305 40,48 C40,49.1045695 39.1045695,50 38,50 Z" id="Oval-185" fill="#7F8C8D"></path>
                <polygon id="Rectangle-398" fill="#BDC3C7" points="2 2 4 2 6 8 4 8"></polygon>
                <circle id="Oval-202" fill="#7F8C8D" cx="2" cy="2" r="2"></circle>
            </g>
        </g>
    </g>
</svg>