<?xml version="1.0" encoding="UTF-8"?>
<svg width="72px" height="69px" viewBox="0 0 72 69" version="1.1" xmlns="http://www.w3.org/2000/svg" xmlns:xlink="http://www.w3.org/1999/xlink">
    <!-- Generator: Sketch 48.2 (47327) - http://www.bohemiancoding.com/sketch -->
    <title>Icons/Messages</title>
    <desc>Created with Sketch.</desc>
    <defs></defs>
    <g id="Symbols" stroke="none" stroke-width="1" fill="none" fill-rule="evenodd">
        <g id="Icons/Messages" fill="#FFFFFF" fill-rule="nonzero">
            <path d="M71.2565783,32.9454217 C70.6040222,31.8427077 69.4228121,31.1694856 68.1497349,31.1746988 L57.0244337,31.1746988 L57.0244337,4.93807229 C57.0224307,4.11410895 56.7973143,3.30635473 56.3733976,2.60204819 C55.5679052,1.24227098 54.1116288,0.411388548 52.5413494,0.415662651 L4.61190361,0.415662651 C3.04162417,0.411388548 1.58534783,1.24227098 0.779855422,2.60204819 C0.347256416,3.3038147 0.113541844,4.11174007 0.104096386,4.93807229 L0.104096386,36.6946988 C0.0979069465,36.7777141 0.0979069465,36.8610811 0.104096386,36.9440964 L0.21946988,37.7006024 C0.215701878,37.7642807 0.215701878,37.828129 0.21946988,37.8918072 C0.755043754,39.8493685 2.51642293,41.2083206 4.52949398,41.2171084 L6.56501205,41.2171084 L6.56501205,50.7108434 C6.56780191,51.3811504 6.96933503,51.9842095 7.58339537,52.2403444 C8.19745571,52.4964793 8.90392953,52.3555886 9.37518072,51.883012 L19.9236145,41.2420482 L31.0077108,41.2420482 L31.0077108,57.0372289 C31.0345096,59.047964 32.6486243,60.6688531 34.6419759,60.686747 L57.181012,60.686747 L64.3836145,68.0107229 C64.8548657,68.4832994 65.5613395,68.6241902 66.1753998,68.3680553 C66.7894602,68.1119204 67.1909933,67.5088613 67.1937831,66.8385542 L67.1937831,60.686747 L68.125012,60.686747 C69.7562093,60.679454 71.1837145,59.5790559 71.6191807,57.993253 C71.6229487,57.9295747 71.6229487,57.8657265 71.6191807,57.8020482 L71.7015904,57.27 C71.7077798,57.1869847 71.7077798,57.1036177 71.7015904,57.0206024 L71.7015904,34.8408434 C71.7253938,34.1801153 71.5716289,33.5251908 71.2565783,32.9454217 Z M63.9303614,59.0240964 L63.9303614,62.79 L59.026988,57.8768675 C58.7234088,57.5554596 58.3050175,57.3698723 57.865012,57.3614458 L34.6419759,57.3614458 C34.4939062,57.3587135 34.3658181,57.2567043 34.3288193,57.1120482 C34.3263346,57.0816178 34.3263346,57.0510328 34.3288193,57.0206024 L34.3288193,34.8408434 C34.3291355,34.7817823 34.3463011,34.7240618 34.3782651,34.6745783 C34.436196,34.5733238 34.5425809,34.5101955 34.6584578,34.5083133 L68.1579759,34.5083133 C68.2738528,34.5101955 68.3802377,34.5733238 68.4381687,34.6745783 C68.4741458,34.7257066 68.4942269,34.7864784 68.4958554,34.8491566 L68.4958554,56.9208434 L68.4958554,57.1868675 C68.4442297,57.3062432 68.3282716,57.3842268 68.1991807,57.3863855 L65.5785542,57.3863855 C64.6778506,57.3862833 63.943872,58.1155941 63.9303614,59.0240964 Z M18.1682892,38.3822892 L9.9273253,46.6955422 L9.9273253,39.5544578 C9.9273253,38.6362013 9.18940426,37.8918072 8.27913253,37.8918072 L4.61190361,37.8918072 C4.10263781,37.8842499 3.65494423,37.5497161 3.49937349,37.0604819 L3.40048193,36.5783133 L3.40048193,4.98795181 C3.41777369,4.33416868 3.93908266,3.80828682 4.58718072,3.79084337 L52.5413494,3.79084337 C52.9573659,3.790736 53.3426159,4.01190717 53.554988,4.37277108 C53.6705801,4.55700627 53.7333332,4.76993644 53.7362892,4.98795181 L53.7362892,31.1746988 L34.6419759,31.1746988 C33.3718348,31.1724246 32.1944288,31.8452633 31.5433735,32.9454217 C31.1991589,33.5167342 31.0167444,34.1722861 31.0159518,34.8408434 L31.0159518,37.9001205 L19.3302651,37.9001205 C18.8950226,37.8997701 18.4773112,38.0731019 18.1682892,38.3822892 Z" id="Shape"></path>
        </g>
    </g>
</svg>