<?xml version="1.0" encoding="UTF-8"?>
<svg width="40px" height="69px" viewBox="0 0 40 69" version="1.1" xmlns="http://www.w3.org/2000/svg" xmlns:xlink="http://www.w3.org/1999/xlink">
    <!-- Generator: Sketch 48.2 (47327) - http://www.bohemiancoding.com/sketch -->
    <title>Icons/Phone</title>
    <desc>Created with Sketch.</desc>
    <defs></defs>
    <g id="Symbols" stroke="none" stroke-width="1" fill="none" fill-rule="evenodd">
        <g id="Icons/Phone" fill="#FFFFFF" fill-rule="nonzero">
            <path d="M34.4804278,0.170470588 L5.60042781,0.170470588 C4.14104116,0.1726042 2.74263796,0.755304975 1.71451522,1.78969191 C0.686392471,2.82407885 0.113275343,4.22491058 0.121925134,5.68235294 L0.121925134,63.3176471 C0.126409595,66.340672 2.58154499,68.7889445 5.60855615,68.7889412 L34.4804278,68.7889412 C37.507439,68.7889445 39.9625744,66.340672 39.9670588,63.3176471 L39.9670588,5.68235294 C39.9757154,4.22350478 39.4014851,2.8214387 38.3716024,1.78681617 C37.3417198,0.752193636 35.9412237,0.170444973 34.4804278,0.170470588 Z M5.60042781,3.41752941 L34.4804278,3.41752941 C35.0789412,3.41746618 35.6524804,3.65711188 36.0726266,4.08280848 C36.4927729,4.50850508 36.7244276,5.08469029 36.7157219,5.68235294 L36.7159587,8.23129412 L3.38928003,8.23129412 L3.38951872,5.68235294 C3.38083954,5.08888888 3.60916399,4.51640434 4.02403188,4.09141964 C4.43889976,3.66643493 5.00615314,3.42394096 5.60042781,3.41752941 Z M36.7075936,11.4458824 L36.7075936,50.9869412 L3.38139037,50.9869412 L3.38139037,11.4377647 L36.7075936,11.4458824 Z M34.4804278,65.5905882 L5.60042781,65.5905882 C5.00189238,65.5885135 4.42919288,65.3468001 4.01057015,64.9195733 C3.59194742,64.4923465 3.3623759,63.9152997 3.37326203,63.3176471 L3.37326203,54.234 L36.6997029,54.234 L36.6994652,63.3176471 C36.7081453,63.9125054 36.4787101,64.4862165 36.062086,64.9114369 C35.645462,65.3366573 35.0761178,65.578207 34.4804278,65.5824706 L34.4804278,65.5905882 Z" id="Shape"></path>
            <ellipse id="Oval" cx="20.044492" cy="59.6728235" rx="3.04812834" ry="3.04411765"></ellipse>
        </g>
    </g>
</svg>