<?xml version="1.0" encoding="UTF-8"?>
<svg width="54px" height="69px" viewBox="0 0 54 69" version="1.1" xmlns="http://www.w3.org/2000/svg" xmlns:xlink="http://www.w3.org/1999/xlink">
    <!-- Generator: Sketch 48.2 (47327) - http://www.bohemiancoding.com/sketch -->
    <title>Icons/Pin</title>
    <desc>Created with Sketch.</desc>
    <defs></defs>
    <g id="Symbols" stroke="none" stroke-width="1" fill="none" fill-rule="evenodd">
        <g id="Icons/Pin" fill="#FFFFFF" fill-rule="nonzero">
            <path d="M26.6662286,0 C11.9626714,0 0,12.0700714 0,26.9050714 C0,48.9591964 24.1610786,67.6939286 25.1907429,68.4800357 C25.6267929,68.8139464 26.1471214,68.9802857 26.6662286,68.9802857 C27.2048786,68.9802857 27.7435286,68.8003929 28.1881286,68.4430714 C29.21535,67.6175357 53.3373429,47.9845714 53.3373429,26.9038393 C53.3373429,12.0700714 41.3722286,0 26.6662286,0 Z M26.6320286,63.316125 C21.4714929,58.9383214 4.88571429,43.5685714 4.88571429,26.9050714 C4.88571429,14.7869464 14.6559214,4.92857143 26.6662286,4.92857143 C38.6789786,4.92857143 48.4516286,14.7869464 48.4516286,26.9050714 C48.4516286,42.8021786 31.7730214,58.77075 26.6320286,63.316125 Z M26.6662286,16.1213571 C20.7765,16.1213571 15.9836143,20.95875 15.9836143,26.9050714 C15.9836143,32.8464643 20.7765,37.6813929 26.6662286,37.6813929 C32.5559571,37.6813929 37.3488429,32.8464643 37.3488429,26.9050714 C37.3488429,20.95875 32.5559571,16.1213571 26.6662286,16.1213571 Z M26.6662286,32.7528214 C23.46975,32.7528214 20.8693286,30.1295893 20.8693286,26.9050714 C20.8693286,23.6768571 23.46975,21.0499286 26.6662286,21.0499286 C29.8627071,21.0499286 32.4631286,23.6768571 32.4631286,26.9050714 C32.4631286,30.1295893 29.8627071,32.7528214 26.6662286,32.7528214 Z" id="Shape"></path>
        </g>
    </g>
</svg>