<?xml version="1.0" encoding="UTF-8"?>
<svg width="52px" height="55px" viewBox="0 0 52 55" version="1.1" xmlns="http://www.w3.org/2000/svg" xmlns:xlink="http://www.w3.org/1999/xlink">
    <!-- Generator: Sketch 48.2 (47327) - http://www.bohemiancoding.com/sketch -->
    <title>Icons/Pro</title>
    <desc>Created with Sketch.</desc>
    <defs>
        <linearGradient x1="-1.78116627%" y1="7.67785154%" x2="101.103052%" y2="74.2103769%" id="linearGradient-1">
            <stop stop-color="#ED227C" offset="0%"></stop>
            <stop stop-color="#24AAE1" offset="100%"></stop>
        </linearGradient>
    </defs>
    <g id="Symbols" stroke="none" stroke-width="1" fill="none" fill-rule="evenodd">
        <g id="Icons/Pro" fill="url(#linearGradient-1)" fill-rule="nonzero">
            <path d="M16.1931628,52.6887912 C16.2270233,52.7020879 16.2572558,52.7202198 16.2929302,52.7304945 C16.2965581,52.7317033 16.300186,52.7317033 16.303814,52.7329121 C19.3276744,53.9731319 22.633907,54.6615385 26.0991628,54.6615385 C29.6170233,54.6615385 32.9722326,53.9537912 36.0335814,52.6773077 C36.0390233,52.6760989 36.0444651,52.6760989 36.0493023,52.6736813 C36.0831628,52.6634066 36.112186,52.6464835 36.1436279,52.6337912 C36.1599535,52.6265385 36.1762791,52.6198901 36.1926047,52.6132418 C36.2270698,52.5975275 36.2627442,52.5848352 36.2947907,52.5667033 C45.5126977,48.6018681 51.9848837,39.4356044 51.9848837,28.7843407 C51.9848837,23.0443956 50.1437209,17.6084615 46.6597209,13.0634066 C46.2346512,12.5085714 45.4401395,12.4021978 44.8844651,12.8282967 C44.3293953,13.2537912 44.224186,14.047967 44.6492558,14.6028022 C47.7910233,18.7018132 49.452,23.6058791 49.452,28.7843407 C49.452,37.943956 44.1449767,45.8851099 36.4453488,49.7060989 L29.4011628,27.1965934 L31.0500465,21.9848901 L37.5488372,25.5876923 C37.894093,25.7786813 38.3064651,25.7974176 38.6674419,25.6420879 C39.0284186,25.4855495 39.2956744,25.1700549 39.3912093,24.7886813 L44.0216279,6.31593407 C44.0899535,6.04093407 44.0645581,5.75082418 43.9490698,5.49153846 L42.0837209,1.32241758 C41.9077674,0.92956044 41.5443721,0.653351648 41.1186977,0.588076923 C41.0751628,0.581428571 41.0322326,0.586868132 40.9893023,0.585054945 C40.9687442,0.581428571 40.9572558,0.57478022 40.9276279,0.57478022 L11.233814,0.57478022 C11.1999535,0.57478022 11.1872558,0.582032967 11.1654884,0.586263736 C11.1243721,0.588076923 11.0838605,0.583241758 11.0433488,0.589285714 C10.6176744,0.653956044 10.2542791,0.930769231 10.0783256,1.32362637 L8.21297674,5.49153846 C8.09748837,5.75021978 8.07148837,6.04093407 8.1404186,6.31593407 L12.7708372,24.7886813 C12.8663721,25.1700549 13.1342326,25.4855495 13.4946047,25.6420879 C13.6560465,25.7115934 13.8277674,25.7466484 13.9988837,25.7466484 C14.2111163,25.7466484 14.4221395,25.6934615 14.6132093,25.5876923 L21.1646047,21.9558791 L22.8225581,27.1996154 L15.8787442,49.7725824 C8.10897674,45.9757692 2.74390698,37.9959341 2.74390698,28.7843407 C2.74390698,23.6040659 4.40609302,18.6981868 7.55088372,14.597967 C7.97595349,14.0431319 7.87074419,13.248956 7.31567442,12.8234615 C6.7612093,12.3973626 5.96730233,12.5031319 5.5404186,13.057967 C2.054,17.6042308 0.211627907,23.0425824 0.211627907,28.7843407 C0.212232558,39.5474176 6.82046512,48.7928571 16.1931628,52.6887912 Z M37.3366047,22.5753846 L28.5909302,17.7275275 L37.3124186,7.84868132 C37.3311628,7.82934066 37.3535349,7.81483516 37.3716744,7.79428571 L40.5781395,4.15401099 L41.4603256,6.12554945 L37.3366047,22.5753846 Z M26.0810233,16.7453846 L18.5585581,8.22340659 L33.6046977,8.22340659 L26.0810233,16.7453846 Z M38.1226512,3.10538462 L35.8388837,5.6928022 L16.3304186,5.6928022 L14.0430233,3.10538462 L38.1226512,3.10538462 Z M10.7029302,6.12554945 L11.5863256,4.15159341 L23.5711163,17.7269231 L14.8260465,22.5747802 L10.7029302,6.12554945 Z M26.0816279,19.2300549 L28.7916744,20.7325824 L27.1639535,25.8771978 L25.0603721,25.8771978 L23.424186,20.702967 L26.0816279,19.2300549 Z M25.0676279,28.5117582 L27.1609302,28.5117582 L34.110186,50.7154396 C31.6099535,51.6317033 28.912,52.1309341 26.0991628,52.1309341 C23.3365116,52.1309341 20.6851163,51.6456044 18.2229767,50.7613736 L25.0676279,28.5117582 Z" id="Shape"></path>
            <path d="M37.675814,35.6103846 L37.675814,32.7080769 L41.9561395,32.7080769 C42.6551163,32.7080769 43.2222791,32.1411538 43.2222791,31.4424725 C43.2222791,30.7437912 42.6551163,30.1768681 41.9561395,30.1768681 L36.4096744,30.1768681 C35.7106977,30.1768681 35.1435349,30.7437912 35.1435349,31.4424725 L35.1435349,36.3646703 C35.1435349,36.8294505 35.398093,37.2561538 35.8074419,37.477967 L40.3272093,39.9215385 C40.5152558,40.0230769 40.7220465,40.0738462 40.9294419,40.0738462 C41.1368372,40.0738462 41.3442326,40.0230769 41.5316744,39.9215385 L46.0520465,37.477967 C46.4613953,37.2567582 46.7159535,36.8294505 46.7159535,36.3646703 L46.7159535,31.4424725 C46.7159535,30.7437912 46.1487907,30.1768681 45.449814,30.1768681 C44.7508372,30.1768681 44.1836744,30.7437912 44.1836744,31.4424725 L44.1836744,35.6103846 L40.9294419,37.3691758 L37.675814,35.6103846 Z" id="Shape"></path>
        </g>
    </g>
</svg>